<?xml version="1.0" encoding="UTF-8"?>
<svg width="128" height="128" viewBox="0 0 128 128" fill="none" xmlns="http://www.w3.org/2000/svg">
<path d="M0 64C0 28.6538 28.6538 0 64 0V0C99.3462 0 128 28.6538 128 64V64C128 99.3462 99.3462 128 64 128V128C28.6538 128 0 99.3462 0 64V64Z" fill="#707070"/>
<path d="M64.0002 64C71.3668 64 77.3335 58.0333 77.3335 50.6666C77.3335 43.3 71.3668 37.3333 64.0002 37.3333C56.6335 37.3333 50.6668 43.3 50.6668 50.6666C50.6668 58.0333 56.6335 64 64.0002 64ZM64.0002 70.6666C55.1002 70.6666 37.3335 75.1333 37.3335 84V90.6666H90.6668V84C90.6668 75.1333 72.9002 70.6666 64.0002 70.6666Z" fill="white"/>
</svg>
